<?xml version="1.0" encoding="UTF-8"?>
<svg id="Layer_2" data-name="Layer 2" xmlns="http://www.w3.org/2000/svg" xmlns:xlink="http://www.w3.org/1999/xlink" viewBox="0 0 668.64 100">
  <defs>
    <style>
      .cls-1 {
        fill: url(#linear-gradient-2);
      }

      .cls-2 {
        fill: url(#linear-gradient);
      }

      .cls-3 {
        fill: #fff;
      }
    </style>
    <linearGradient id="linear-gradient" x1="0" y1="50" x2="94.71" y2="50" gradientUnits="userSpaceOnUse">
      <stop offset="0" stop-color="#4c2e90"/>
      <stop offset="1" stop-color="#6a2c90"/>
    </linearGradient>
    <linearGradient id="linear-gradient-2" x1="54.32" y1="79.32" x2="115.17" y2="79.32" xlink:href="#linear-gradient"/>
  </defs>
  <g id="Layer_1-2" data-name="Layer 1">
    <g>
      <g>
        <path class="cls-2" d="M90.44,0c3.28,0,5.34,3.56,3.7,6.4l-30.16,52.24-22.65,39.23c-.76,1.32-2.17,2.13-3.7,2.13H4.27c-3.28,0-5.34-3.56-3.7-6.4l20.18-34.96L53.38,2.13c.76-1.32,2.17-2.13,3.7-2.13h33.36Z"/>
        <path class="cls-1" d="M114.59,65.04l-18.96,32.83c-.76,1.32-2.17,2.13-3.7,2.13h-33.35c-3.28,0-5.34-3.56-3.7-6.4l18.95-32.83c.76-1.32,2.17-2.13,3.7-2.13h33.36c3.28,0,5.34,3.56,3.7,6.4Z"/>
      </g>
      <g>
        <path class="cls-3" d="M135.48,98.41L151.8,0h23.32l-13.14,79.39h41.15l-3.17,19.02h-64.46Z"/>
        <path class="cls-3" d="M238.52,99.47c-5.46,0-10.19-1.42-14.2-4.26-4.01-2.84-6.88-7.08-8.62-12.71-1.74-5.64-1.93-12.62-.56-20.94,1.45-8.67,4.02-15.81,7.69-21.4,3.68-5.59,7.99-9.74,12.95-12.45,4.95-2.71,10.01-4.06,15.16-4.06,3.92,0,7.16.66,9.71,1.98,2.55,1.32,4.56,3.03,6.01,5.12,1.45,2.09,2.44,4.26,2.97,6.51h.53l2.11-12.68h22.92l-12.22,73.84h-22.79l1.98-11.96h-.73c-1.32,2.25-3.07,4.36-5.25,6.34-2.18,1.98-4.73,3.59-7.66,4.82-2.93,1.23-6.27,1.85-10.01,1.85ZM249.35,81.51c2.95,0,5.6-.84,7.96-2.51,2.35-1.67,4.33-4,5.91-6.97,1.58-2.97,2.69-6.46,3.3-10.47.7-4.09.76-7.63.16-10.6-.6-2.97-1.8-5.26-3.6-6.87-1.8-1.61-4.18-2.41-7.13-2.41s-5.65.83-7.96,2.48c-2.31,1.65-4.25,3.96-5.81,6.94-1.56,2.97-2.68,6.46-3.34,10.47-.66,3.96-.71,7.45-.13,10.47.57,3.02,1.75,5.35,3.53,7,1.78,1.65,4.15,2.48,7.1,2.48Z"/>
        <path class="cls-3" d="M350.28,24.57l-2.77,17.11h-46.1l2.77-17.11h46.1ZM316.92,7h23.05l-11.43,68.82c-.31,1.98-.07,3.44.73,4.36.79.93,2.22,1.39,4.29,1.39.75,0,1.86-.09,3.34-.26,1.47-.18,2.52-.35,3.14-.53l.2,16.78c-2.69.75-5.26,1.25-7.73,1.52s-4.8.4-7,.4c-7.84,0-13.48-1.84-16.91-5.51-3.43-3.68-4.58-9.04-3.43-16.08l11.76-70.87Z"/>
        <path class="cls-3" d="M384.1,100c-6.78,0-12.63-1.21-17.54-3.63-4.91-2.42-8.7-5.89-11.36-10.4-2.67-4.51-4-9.92-4-16.22s1.03-11.96,3.1-17.5c2.07-5.55,5.01-10.48,8.82-14.79,3.81-4.31,8.36-7.72,13.67-10.21,5.31-2.49,11.24-3.73,17.8-3.73,5.37,0,10.24.87,14.6,2.61,4.36,1.74,7.81,4.25,10.37,7.53,2.55,3.28,3.83,7.23,3.83,11.86s-1.45,8.69-4.36,11.66c-2.91,2.97-7.13,5.25-12.68,6.84-5.55,1.59-12.28,2.67-20.21,3.24-7.93.57-16.91.86-26.95.86l2.25-13.21c8.59,0,15.57-.1,20.94-.3,5.37-.2,9.5-.59,12.38-1.19,2.88-.59,4.86-1.41,5.94-2.44,1.08-1.03,1.62-2.34,1.62-3.93,0-2.16-.89-3.84-2.67-5.05-1.78-1.21-4.28-1.82-7.5-1.82-4.01,0-7.26,1.09-9.74,3.27-2.49,2.18-4.37,4.89-5.65,8.12-1.28,3.24-2.15,6.55-2.61,9.94-.46,3.39-.69,6.32-.69,8.78s.36,4.68,1.09,6.64,1.99,3.51,3.8,4.66c1.8,1.15,4.29,1.72,7.46,1.72,3.39,0,6.36-.68,8.92-2.05,2.55-1.36,4.34-3.3,5.35-5.81l20.54,2.11c-2.29,6.69-6.65,12.11-13.08,16.25-6.43,4.14-14.24,6.21-23.45,6.21Z"/>
        <path class="cls-3" d="M459.06,57l-6.87,41.41h-23.05l12.29-73.84h21.66l-2.51,18.63-1.25-.73c2.77-5.86,6.29-10.46,10.53-13.8,4.25-3.35,9.46-5.02,15.62-5.02,5.37,0,9.87,1.21,13.51,3.63,3.63,2.42,6.21,5.78,7.73,10.07,1.52,4.29,1.79,9.24.83,14.83l-7.66,46.23h-23.05l7.27-43.26c.71-4.18.14-7.32-1.68-9.41-1.83-2.09-4.48-3.14-7.96-3.14-2.69,0-5.1.59-7.23,1.78-2.14,1.19-3.91,2.87-5.32,5.05-1.41,2.18-2.35,4.7-2.84,7.56Z"/>
        <path class="cls-3" d="M515.2,98.41l2.25-13.28,40.82-42.07.07-.46h-32.76l2.97-18.03h60.76l-2.44,14.6-38.11,40.75-.07.46h32.63l-2.97,18.03h-63.14Z"/>
        <path class="cls-3" d="M626.04,99.8c-6.96,0-12.86-1.29-17.7-3.86s-8.53-6.2-11.06-10.87c-2.53-4.67-3.8-10.13-3.8-16.38s.96-11.61,2.87-17.01c1.91-5.39,4.7-10.2,8.36-14.43,3.65-4.23,8.12-7.55,13.41-9.97,5.28-2.42,11.32-3.63,18.1-3.63s12.78,1.29,17.6,3.86c4.82,2.58,8.5,6.2,11.03,10.87,2.53,4.67,3.8,10.13,3.8,16.38s-.94,11.61-2.81,17.01c-1.87,5.39-4.63,10.21-8.29,14.43-3.66,4.23-8.13,7.55-13.41,9.97-5.28,2.42-11.32,3.63-18.1,3.63ZM626.89,82.17c3.35,0,6.2-.96,8.55-2.87,2.35-1.92,4.27-4.35,5.75-7.3,1.47-2.95,2.56-6.04,3.27-9.28.71-3.24,1.06-6.2,1.06-8.88s-.4-4.84-1.19-6.74-1.94-3.34-3.43-4.33c-1.5-.99-3.37-1.49-5.61-1.49-3.35,0-6.21.94-8.59,2.81-2.38,1.87-4.3,4.27-5.78,7.2s-2.55,6-3.24,9.21c-.68,3.21-1.02,6.17-1.02,8.85,0,3.96.88,7.09,2.64,9.38,1.76,2.29,4.29,3.44,7.6,3.44Z"/>
      </g>
    </g>
  </g>
</svg>