<?xml version="1.0" encoding="UTF-8"?>
<svg id="Layer_2" data-name="Layer 2" xmlns="http://www.w3.org/2000/svg" viewBox="0 0 146.41 127.12">
  <g id="Layer_1-2" data-name="Layer 1">
    <g>
      <path d="M114.96,0c4.18,0,6.79,4.52,4.7,8.14l-38.34,66.4-28.79,49.87c-.97,1.68-2.76,2.71-4.7,2.71H5.43c-4.18,0-6.79-4.52-4.7-8.14l25.65-44.44L67.86,2.71c.97-1.68,2.76-2.71,4.7-2.71h42.4Z"/>
      <path d="M145.67,82.68l-24.1,41.73c-.97,1.68-2.76,2.71-4.7,2.71h-42.39c-4.18,0-6.79-4.52-4.7-8.14l24.09-41.73c.97-1.68,2.76-2.71,4.7-2.71h42.4c4.18,0,6.79,4.52,4.7,8.14Z"/>
    </g>
  </g>
</svg>